<group>
ampeg_attack=0.100000
ampeg_release=0.500000

<region>
sample=Harmonica-Hohner-Special20-F/Releases/Vib/Hohner-Special20-F_Vib_rel_F3.wav
pitch_keycenter=53
lokey=53.0
hikey=55.0
tune=-2
volume=-3.335599

<region>
sample=Harmonica-Hohner-Special20-F/Releases/Vib/Hohner-Special20-F_Vib_rel_A3.wav
pitch_keycenter=57
lokey=56.0
hikey=58.0
tune=-3
volume=-0.934384

<region>
sample=Harmonica-Hohner-Special20-F/Releases/Vib/Hohner-Special20-F_Vib_rel_C4.wav
pitch_keycenter=60
lokey=59.0
hikey=62.0
tune=-7
volume=6.000000

<region>
sample=Harmonica-Hohner-Special20-F/Releases/Vib/Hohner-Special20-F_Vib_rel_F4.wav
pitch_keycenter=65
lokey=63.0
hikey=67.0
tune=-2
volume=-0.735863

<region>
sample=Harmonica-Hohner-Special20-F/Releases/Vib/Hohner-Special20-F_Vib_rel_A4.wav
pitch_keycenter=69
lokey=68.0
hikey=70.0
volume=4.464600

<region>
sample=Harmonica-Hohner-Special20-F/Releases/Vib/Hohner-Special20-F_Vib_rel_C5.wav
pitch_keycenter=72
lokey=71.0
hikey=74.0
tune=-5
volume=4.678568

<region>
sample=Harmonica-Hohner-Special20-F/Releases/Vib/Hohner-Special20-F_Vib_rel_F5.wav
pitch_keycenter=77
lokey=75.0
hikey=79.0
volume=-9.624575

<region>
sample=Harmonica-Hohner-Special20-F/Releases/Vib/Hohner-Special20-F_Vib_rel_A5.wav
pitch_keycenter=81
lokey=80.0
hikey=85.0
tune=-2
volume=6.000000

<region>
sample=Harmonica-Hohner-Special20-F/Releases/Vib/Hohner-Special20-F_Vib_rel_F6.wav
pitch_keycenter=89
lokey=86.0
hikey=90.0
tune=-1
volume=6.000000

